/* XPM */
static char *result[] = {
/* columns rows colors chars-per-pixel */
"117 156 8 1 ",
"  c #211924",
". c #251D2A",
"X c #2F2535",
"o c #372B3E",
"O c #3F3249",
"+ c #AC98B6",
"@ c #E7E0E9",
"# c None",
/* pixels */
"#####################################################################################################################",
"#####################################################################################################################",
"#####################################################################################################################",
"#####################################################################################################################",
"#####################################################################################################################",
"#####################################################################################################################",
"#####################################################################################################################",
"#####################################################################################################################",
"#####################################################################################################################",
"###########ooo@@#####################################################################################################",
"##########oooo@@#####################################################################################################",
"##########oo@@o  #OO#################################################################################################",
"##########oo@@   OOoo################################################################################################",
"##########ooo   oOooo++++++++++++####################################################################################",
"##########ooo  oOooo++++  +++++++####################################################################################",
"##########+o   OOoo  ++    ++++######################################################################################",
"##########+#  oooo    o    ##########################################################################################",
"##########+##ooOoo    oo  ###########################################################################################",
"##########+##oOoooo  oooo############################################################################################",
"##########+###ooooooooooX############################################################################################",
"###########+++++ooooooXX#############################################################################################",
"################oooooXX.#############################################################################################",
"#################ooooo.##############################################################################################",
"#################ooooX###############################################################################################",
"##################ooX################################################################################################",
"#####################################################################################################################",
"#####################################################################################################################",
"#####################################################################################################################",
"#####################################################################################################################",
"#####################################################################################################################",
"#####################################################################################################################",
"###########################+++#######################################################################################",
"##########################+++++######################################################################################",
"##########################++++++#####################################################################################",
"##########################+++++++####################################################################################",
"#########################++++#++++###################################################################################",
"#########################+++###++####################################################################################",
"#########################+++#########################################################################################",
"######################+#++++#########################################################################################",
"#####################++#+++##########################################################################################",
"###############Oooooo++++++##########################################################################################",
"###############Oooooo+++++###########################################################################################",
"###############Ooooooo++++###########################################################################################",
"##############oOooooooo+++###########################################################################################",
"#########oooo oOoooooooooX.##########################################################################################",
"########ooooo oOoooooooooX.##########################################################################################",
"########ooooo oOoooooooooX.##########################################################################################",
"#######ooo@o  ooOoooooooooX##########################################################################################",
"#######ooo@o   oOoooooooooX##########################################################################################",
"#######ooooo   oO oooo  ooX##########################################################################################",
"########oo@o   o   oo    o###########################################################################################",
"#####################################################################################################################",
"#####################################################################################################################",
"#####################################################################################################################",
"#####################################################################################################################",
"#####################################################################################################################",
"#####################################################################################################################",
"#####################################################################################################################",
"#####################################################################################################################",
"#####################################################################################################################",
"########################+############################################################################################",
"#####################+++++###########################################################################################",
"####################++++#############################################################################################",
"###################++++##############################################################################################",
"####################++++#############################################################################################",
"#####################++++############################################################################################",
"##############Oooooooo+++############################################################################################",
"##############Ooooooooo+++###########################################################################################",
"##############Ooooooooo++++##########################################################################################",
"#############oOooooooooo++++#########################################################################################",
"########oooo oOoooooo+++++++#########################################################################################",
"#######ooooo oOooooooo++++++#########################################################################################",
"#######ooooo oOoooooooooX.###########################################################################################",
"######ooo@o  ooOoooooooooX###########################################################################################",
"######ooo@o   oOoooooooooX###########################################################################################",
"######ooooo   oO oooo  ooX###########################################################################################",
"#######oo@o   o   oo    o############################################################################################",
"#####################################################################################################################",
"#####################################################################################################################",
"#####################################################################################################################",
"#####################################################################################################################",
"#####################################################################################################################",
"#####################################################################################################################",
"#####################################################################################################################",
"#####################################################################################################################",
"#####################################################################################################################",
"#####################################################################################################################",
"#####################################################################################################################",
"#####################################################################################################################",
"#####################################################################################################################",
"#####################################################################################################################",
"#####################################################################################################################",
"#############Oooooooooo##############################################################################################",
"#############OoooooooooX#############################################################################################",
"#############OoooooooooX#############################################################################################",
"############oOoooooooooX#############################################################################################",
"#######oooo oOoooooooooX.############################################################################################",
"######ooooo oOoooooooooX.############################################################################################",
"######ooooo oOoooooooooX.############################################################################################",
"#####ooo@o  ooOoooooooooX############################################################################################",
"#####ooo@o   oOoo++++++++++++########################################################################################",
"#####ooooo   oO ++++  +++++++########################################################################################",
"######oo@o   o   ++    ++++##########################################################################################",
"#####################################################################################################################",
"#####################################################################################################################",
"#####################################################################################################################",
"#####################################################################################################################",
"#####################################################################################################################",
"#####################################################################################################################",
"#####################################################################################################################",
"#####################################################################################################################",
"#####################################################################################################################",
"#####################################################################################################################",
"#####################################################################################################################",
"#####################################################################################################################",
"#####################################################################################################################",
"#####################################################################################################################",
"#####################################################################################################################",
"#############Oooooooooo##############################################################################################",
"#############OoooooooooX#############################################################################################",
"#############OoooooooooX#############################################################################################",
"############oOoooooooooX#############################################################################################",
"#######oooo oOoooooooooX.############################################################################################",
"######ooooo oOoooooooooX.############################################################################################",
"######ooooo oOoooooooooX.############################################################################################",
"#####ooo@o  ooOooooooo++++++#########################################################################################",
"#####ooo@o   oOo+++++++++++++########################################################################################",
"#####ooooo   oO ++++  o++++##########################################################################################",
"######oo@o   o   ++    o#############################################################################################",
"#####################################################################################################################",
"#####################################################################################################################",
"#####################################################################################################################",
"#####################################################################################################################",
"#####################################################################################################################",
"#####################################################################################################################",
"#####################################################################################################################",
"#####################################################################################################################",
"#####################################################################################################################",
"#####################################################################################################################",
"#####################################################################################################################",
"#####################################################################################################################",
"#####################################################################################################################",
"#####################################################################################################################",
"#####################################################################################################################",
"#############Oooooooooo##############################################################################################",
"#############OoooooooooX#############################################################################################",
"#############OoooooooooX#############################################################################################",
"############oOoooooooooX#############################################################################################",
"#######oooo oOoooooooooX.############################################################################################",
"######ooooo oOoooooooooX.############################################################################################",
"######ooooo oOoooooooooX.############################################################################################",
"#####ooo@o  ooOoooooooooX############################################################################################",
"#####ooo@o   oOoo++++++++++++########################################################################################",
"#####ooooo   oO ++++  +++++++########################################################################################",
"######oo@o   o   ++    ++++##########################################################################################",
"#####################################################################################################################"
};
