/* XPM */
static char *result[] = {
/* columns rows colors chars-per-pixel */
"117 27 8 1 ",
"  c #211924",
". c #251D2A",
"X c #2F2535",
"o c #372B3E",
"O c #3F3249",
"+ c #AC98B6",
"@ c #E7E0E9",
"# c None",
/* pixels */
"#####################################################################################################################",
"#####################################################################################################################",
"#####################ooooo###########################################################################################",
"####################oooooo###########################################################################################",
"####################ooooooo##########################################################################################",
"##################++ooo@@oo##########################################################################################",
"#################+##ooo@@o@##########################################################################################",
"################+###      @##########################################################################################",
"################+###       ##########################################################################################",
"###############+##oooooooo ##########################################################################################",
"###############+#OOOOOOOOoo##########################################################################################",
"###############+#ooooooooOOO#########################################################################################",
"###############+#oooo++++++++++++####################################################################################",
"################+ooo++++  +++++++####################################################################################",
"#################oo  ++    ++++######################################################################################",
"#################o    o    o#########################################################################################",
"#################o    oo  oo#########################################################################################",
"#################oo  ooooooo#########################################################################################",
"#################ooooooooooo#########################################################################################",
"#################ooooooooooo#########################################################################################",
"##################XXXXXXXooo#########################################################################################",
"####################     XX##########################################################################################",
"#############@######.....############################################################################################",
"############@@@######...#############################################################################################",
"###########@@@@@@@###################################################################################################",
"#####################################################################################################################",
"#####################################################################################################################"
};