/* XPM */
static char *result[] = {
/* columns rows colors chars-per-pixel */
"117 130 8 1 ",
"  c #211924",
". c #251D2A",
"X c #2F2535",
"o c #372B3E",
"O c #3F3249",
"+ c #AC98B6",
"@ c #E7E0E9",
"# c None",
/* pixels */
"#####################################################################################################################",
"#####################################################################################################################",
"#####################################################################################################################",
"#####################################################################################################################",
"#####################################################################################################################",
"#####################################################################################################################",
"#####################################################################################################################",
"####################ooooo############################################################################################",
"###################ooooooo###########################################################################################",
"###################ooooooo###########################################################################################",
"#################++ooooooo###########################################################################################",
"################+##ooo@@o@###########################################################################################",
"###############+##ooooooooo##########################################################################################",
"###############+#OOOOOOOOOOO#########################################################################################",
"###############+#ooooooooooo#########################################################################################",
"###############+#ooooooooooo#########################################################################################",
"################+ooooooooooo#########################################################################################",
"#################ooooooooooo#########################################################################################",
"#################ooooooooooo#########################################################################################",
"#################ooooooooooo#########################################################################################",
"#################ooooooooooo#########################################################################################",
"################  ooooooooo  ########################################################################################",
"################  ooooooooo  ########################################################################################",
"##################XXXXXXXXX##########################################################################################",
"#####################...#############################################################################################",
"#####################################################################################################################",
"#####################################################################################################################",
"#####################################################################################################################",
"####################ooooo############################################################################################",
"###################ooooooo###########################################################################################",
"###################ooooooo###########################################################################################",
"##################+ooo@@o@###########################################################################################",
"#################+#ooo@@o@###########################################################################################",
"################+##       ###########################################################################################",
"###############+###       ###########################################################################################",
"###############+##ooooooooo##########################################################################################",
"###############+#OOOOOOOOOOO#########################################################################################",
"###############+#ooooooooooo#########################################################################################",
"###############+#ooooooooooo#########################################################################################",
"################+oooooooo+++#########################################################################################",
"#################ooooooooo+++########################################################################################",
"#################oooooooo+++ ++######################################################################################",
"#################  oooooooo   ++#####################################################################################",
"################    oooooo    ++++###################################################################################",
"################    ooooooo   +++++##################################################################################",
"#################  ooooooooo#+++++++#################################################################################",
"##################XXXXXXXXX##+++++++#################################################################################",
"####################     ###++++++###################################################################################",
"####################.....###+++++####################################################################################",
"#####################...####+########################################################################################",
"#####################################################################################################################",
"#####################################################################################################################",
"#####################################################################################################################",
"#####################################################################################################################",
"#####################################################################################################################",
"####################ooooo############################################################################################",
"###################ooooooo###########################################################################################",
"#################+#ooooooo###########################################################################################",
"################+#+ooo@@o@###########################################################################################",
"###############+###ooo@@o@###########################################################################################",
"###############+###       ###########################################################################################",
"###############+###       ###########################################################################################",
"###############+##ooooooooo##########################################################################################",
"###############+#OOOOOOOOOOO#########################################################################################",
"###############+#ooooooooooo#########################################################################################",
"###############+#ooooooooooo#########################################################################################",
"################+oooooo++++++++++++##################################################################################",
"#################ooooo++++  +++++++##################################################################################",
"#################oooo  ++    ++++++##################################################################################",
"#################ooo    o    ###++###################################################################################",
"#################ooo    oo  #########################################################################################",
"#################oooo  ooooo#########################################################################################",
"#################ooooooooooo#########################################################################################",
"##################XXXXXXXXX##########################################################################################",
"####################     ############################################################################################",
"####################.....############################################################################################",
"#####################...#############################################################################################",
"#####################################################################################################################",
"#####################################################################################################################",
"#####################################################################################################################",
"#####################################################################################################################",
"####################ooooo############################################################################################",
"###################ooooooo###########################################################################################",
"###################ooooooo###########################################################################################",
"#################++ooo@@o@###########################################################################################",
"################+##ooo@@o@###########################################################################################",
"###############+###       ###########################################################################################",
"###############+###       ###########################################################################################",
"###############+##ooooooooo##########################################################################################",
"###############+#OOOOOOOOOOO#########################################################################################",
"###############+#ooooooooooo#########################################################################################",
"###############+#ooooooooooo#########################################################################################",
"################+oooooo++++++++++++##################################################################################",
"#################ooooo++++  +++++++##################################################################################",
"#################oooo  ++    ++++####################################################################################",
"#################ooo    o    ########################################################################################",
"#################ooo    oo  #########################################################################################",
"#################oooo  ooooo#########################################################################################",
"#################ooooooooooo#########################################################################################",
"##################XXXXXXXXX##########################################################################################",
"####################     ############################################################################################",
"####################.....############################################################################################",
"#####################...#############################################################################################",
"#####################################################################################################################",
"#####################################################################################################################",
"#####################################################################################################################",
"#####################################################################################################################",
"####################ooooo############################################################################################",
"###################ooooooo###########################################################################################",
"###################ooooooo###########################################################################################",
"##################+ooo@@o@###########################################################################################",
"#################+#ooo@@o@###########################################################################################",
"################+##       ###########################################################################################",
"###############+###       ###########################################################################################",
"###############+##ooooooooo##########################################################################################",
"###############+#OOOOOOOOOOO#########################################################################################",
"###############+#ooooooooooo#########################################################################################",
"###############+#ooooooooooo#########################################################################################",
"################+oooooo++++++++++++##################################################################################",
"#################ooooo++++  +++++++##################################################################################",
"#################oooo  ++    ++++####################################################################################",
"#################ooo    o    ########################################################################################",
"#################ooo    oo  #########################################################################################",
"#################oooo  ooooo#########################################################################################",
"#################ooooooooooo#########################################################################################",
"##################XXXXXXXXX##########################################################################################",
"####################     ############################################################################################",
"####################.....############################################################################################",
"#####################...#############################################################################################",
"#####################################################################################################################"
};
